<svg version="1.1" xmlns="http://www.w3.org/2000/svg" x="0px" y="0px"
     viewBox="174 -39.1 888 185" style="enable-background:new 174 -39.1 888 185;"
     xml:space="preserve">
            <polygon fill="#e60000" class="awery-svg-path" points="817,48.1 893.5,135.1 879.7,135.1 803,48.1 "/>
    <rect fill="#e60000" x="600" y="-28.9" class="awery-svg-path" width="132" height="11"/>
    <rect fill="#e60000" x="975" y="53.1" class="awery-svg-path" width="11" height="82"/>
    <polygon fill="#e60000" class="awery-svg-path" points="565,-28.9 554,-28.9 498.9,110.5 444.2,-28.9 389.1,110.5 334.3,-28.9 323,-28.9 389.2,135.1 444,-1.2
        499.1,135.1 "/>
    <path fill="#e60000" class="R" d="M836-17.9c18.2,0,33,14.8,33,33s-14.8,33-33,33h-33l10,11h23c24.4,0,44-18.9,44-44s-19.6-44-44-44h-77l10,11 h66.6"/>
    <polygon fill="#e60000" class="awery-svg-path"
             points="980.5,64.4 1052,-28.9 1039.1,-28.9 980.5,47.9 922.5,-28.9 909,-28.9 "/>
    <polygon fill="#e60000" class="awery-svg-path" points="255.2,91.1 205.8,91.1 210.8,80.1 251.1,80.1 "/>
    <g>
                <polygon fill="#e60000" class="awery-svg-path" points="206.1,80.1 184,135.1 195,135.1 216.4,80.1 	"/>
        <polygon fill="#e60000" class="awery-svg-path"
                 points="249.8,-28.9 210.2,70 220.7,70 250,-4.3 304.7,135.1 316,135.1 	"/>
            </g>
    <rect fill="#e60000" x="600" y="124.1" class="awery-svg-path" width="132" height="11"/>
    <rect fill="#e60000" x="600.1" y="48.1" class="awery-svg-path" width="131.8" height="11"/>
        </svg>
