<?xml version="1.0" encoding="utf-8"?>
<!-- Generator: Adobe Illustrator 22.1.0, SVG Export Plug-In . SVG Version: 6.00 Build 0)  -->
<svg version="1.1" id="Layer_1" xmlns="http://www.w3.org/2000/svg" xmlns:xlink="http://www.w3.org/1999/xlink" x="0px" y="0px"
	 viewBox="0 0 410 76" style="enable-background:new 0 0 410 76;" xml:space="preserve">
<style type="text/css">
	.st0{fill:#EE6823;}
	.st1{fill:#252F3E;}
</style>
<title>cargobooking-logo</title>
<g>
	<path class="st0" d="M43.4,55.9c-2.6,0-5.2-0.4-7.6-1.4c-2.2-0.9-4.2-2.3-5.9-4c-1.7-1.9-3-4.1-3.8-6.5c-0.9-2.8-1.4-5.8-1.3-8.8
		c0-3,0.5-6,1.5-8.8c0.9-2.4,2.3-4.6,4.1-6.4c1.7-1.7,3.7-3.1,6-4c2.3-0.9,4.8-1.4,7.3-1.4c1.5,0,3,0.1,4.4,0.3
		c1.2,0.2,2.3,0.5,3.4,0.8c0.8,0.2,1.6,0.5,2.4,0.9c0.4,0.2,0.9,0.4,1.3,0.7l-1.6,4.6c-0.5-0.3-1-0.5-1.5-0.7
		c-0.7-0.3-1.4-0.5-2.2-0.8c-0.9-0.3-1.8-0.5-2.7-0.6c-1-0.2-2-0.3-2.9-0.3c-1.9,0-3.9,0.3-5.6,1.1c-1.6,0.7-3.1,1.8-4.3,3.1
		c-1.2,1.5-2.2,3.2-2.7,5c-0.6,2.1-1,4.4-0.9,6.6c0,2.2,0.3,4.3,0.8,6.4c0.5,1.8,1.3,3.5,2.5,5c1.1,1.4,2.5,2.5,4.1,3.2
		c1.8,0.8,3.8,1.2,5.8,1.1c2.1,0.1,4.3-0.2,6.3-0.8c1.3-0.4,2.5-0.9,3.7-1.4l1.4,4.6c-0.4,0.3-0.9,0.5-1.4,0.7
		c-0.8,0.3-1.7,0.6-2.6,0.8c-1.2,0.3-2.4,0.5-3.6,0.7C46.4,55.8,44.9,55.9,43.4,55.9z"/>
	<path class="st0" d="M71,24.7c1.8,0,3.7,0.2,5.4,0.8c2.7,0.9,4.7,3.2,5.4,5.9c0.4,1.5,0.6,3,0.6,4.6v18.5l-1.9,0.3
		c-0.8,0.1-1.7,0.3-2.8,0.4s-2.1,0.2-3.3,0.3s-2.4,0.2-3.6,0.2c-1.6,0-3.1-0.2-4.6-0.5c-1.3-0.3-2.5-0.8-3.6-1.6
		c-1-0.8-1.9-1.8-2.4-2.9c-0.6-1.4-0.9-2.9-0.8-4.4c0-1.5,0.3-2.9,1-4.2c0.6-1.2,1.6-2.1,2.7-2.9c1.2-0.8,2.6-1.3,4-1.6
		c1.6-0.4,3.2-0.5,4.8-0.6c0.5,0,1.1,0,1.7,0.1s1.1,0.1,1.6,0.2l1.3,0.3c0.4,0.1,0.6,0.1,0.8,0.2v-1.4c0-0.9-0.1-1.7-0.3-2.6
		c-0.2-0.8-0.5-1.6-1-2.3c-0.5-0.7-1.2-1.2-2-1.6c-1.1-0.4-2.2-0.6-3.3-0.6c-1.5,0-3.1,0.1-4.6,0.4c-1,0.2-2,0.4-2.9,0.8L62.4,26
		c1.1-0.4,2.3-0.7,3.4-0.9C67.5,24.8,69.3,24.7,71,24.7z M71.5,51.2c1.3,0,2.4,0,3.3-0.1c0.8,0,1.6-0.1,2.4-0.3V42
		c-0.6-0.3-1.2-0.4-1.9-0.5c-1.9-0.2-3.8-0.2-5.6,0c-0.8,0.1-1.7,0.4-2.4,0.7c-0.7,0.3-1.4,0.9-1.9,1.5c-0.5,0.7-0.8,1.6-0.7,2.5
		c0,1.9,0.6,3.2,1.8,4C68,51,69.7,51.3,71.5,51.2z"/>
	<path class="st0" d="M102.1,24.8c0.5,0,1,0,1.6,0.1c0.6,0.1,1.2,0.1,1.7,0.2s1.1,0.2,1.6,0.3c0.3,0.1,0.7,0.2,1,0.3l-0.9,4.6
		c-0.7-0.2-1.4-0.4-2.1-0.5c-1.2-0.2-2.5-0.3-3.7-0.3c-1,0-2,0.1-2.9,0.3c-1,0.2-1.6,0.4-1.9,0.4V55h-5.3V26.7
		c1.5-0.5,3.1-1,4.7-1.3C97.9,25,100,24.8,102.1,24.8z"/>
	<path class="st0" d="M131.8,52.1c-0.8,0.5-1.7,0.9-2.7,1.2c-1.5,0.5-3,0.8-4.6,0.7c-1.7,0-3.4-0.3-5-0.9c-1.6-0.6-3-1.5-4.1-2.7
		c-1.2-1.3-2.2-2.8-2.8-4.5c-0.7-2.1-1.1-4.2-1-6.4c0-2,0.3-4.1,1-6c1.2-3.5,3.9-6.4,7.3-7.8c1.9-0.8,3.9-1.1,6-1.1
		c2.2,0,4.3,0.2,6.5,0.5c1.8,0.4,3.4,0.7,4.6,1v26.5c0,4.6-1.2,7.9-3.5,9.9c-2.3,2.1-5.9,3.1-10.7,3.1c-1.8,0-3.5-0.1-5.3-0.5
		c-1.5-0.3-2.9-0.6-4.3-1.1l1-4.6c1.3,0.5,2.6,0.8,3.9,1.1c1.6,0.3,3.2,0.5,4.8,0.5c3.1,0,5.4-0.6,6.8-1.9c1.4-1.3,2.1-3.3,2.1-6
		L131.8,52.1z M131.7,30.1c-0.7-0.2-1.4-0.3-2.1-0.4c-1.2-0.2-2.4-0.2-3.6-0.2c-2.5-0.2-4.9,0.9-6.6,2.8c-1.6,2.1-2.4,4.7-2.3,7.4
		c0,1.5,0.2,3,0.7,4.4c0.4,1.1,1,2.1,1.8,3c0.7,0.8,1.6,1.4,2.5,1.8c1,0.4,2,0.6,3,0.6c1.3,0,2.6-0.2,3.9-0.6c1-0.3,1.9-0.8,2.8-1.4
		L131.7,30.1z"/>
	<path class="st0" d="M172.3,40.2c0,2.2-0.3,4.3-1,6.4c-0.6,1.8-1.6,3.5-2.9,4.9c-1.2,1.4-2.7,2.4-4.4,3.2c-3.6,1.5-7.6,1.5-11.2,0
		c-1.7-0.7-3.2-1.8-4.4-3.2c-1.3-1.4-2.3-3.1-2.9-4.9c-0.7-2.1-1-4.2-1-6.4c0-2.2,0.3-4.3,1-6.4c0.6-1.8,1.6-3.5,2.9-4.9
		c1.2-1.4,2.7-2.4,4.4-3.2c3.6-1.5,7.6-1.5,11.2,0c1.7,0.7,3.2,1.8,4.4,3.2c1.3,1.4,2.3,3.1,2.9,4.9C172,35.9,172.3,38.1,172.3,40.2
		z M166.8,40.2c0.2-2.8-0.6-5.6-2.2-8c-2.7-3.4-7.7-3.9-11-1.2c-0.4,0.4-0.9,0.8-1.2,1.2c-1.6,2.3-2.4,5.1-2.2,8
		c-0.2,2.8,0.6,5.7,2.2,8c2.7,3.4,7.7,3.9,11,1.2c0.4-0.4,0.9-0.8,1.2-1.2C166.1,45.9,166.9,43.1,166.8,40.2z"/>
	<path class="st1" d="M190.8,55.4c-0.8,0-1.7,0-2.6-0.1s-1.9-0.1-2.8-0.2s-1.9-0.2-2.8-0.3c-0.8-0.1-1.7-0.3-2.5-0.5V16.1
		c0.8-0.2,1.7-0.4,2.5-0.5c0.9-0.1,1.8-0.2,2.8-0.3s1.9-0.1,2.8-0.2s1.8-0.1,2.6-0.1c2.1,0,4.3,0.2,6.4,0.5c1.8,0.3,3.6,0.9,5.2,1.7
		c1.4,0.8,2.6,1.9,3.4,3.2c0.9,1.5,1.3,3.2,1.2,4.9c0.1,1.9-0.5,3.8-1.5,5.3c-1,1.4-2.5,2.5-4.1,3.1c2.1,0.6,4,1.7,5.5,3.2
		c1.5,1.7,2.2,4,2.1,6.3c0,4-1.5,6.9-4.4,8.9C201.7,54.4,197.1,55.4,190.8,55.4z M185.6,32.2h5.8c1.3,0,2.6-0.1,3.9-0.3
		c1.1-0.1,2.2-0.5,3.2-1c0.9-0.5,1.6-1.1,2.1-1.9c0.5-0.9,0.8-1.9,0.8-3c0-1-0.2-2-0.8-2.9c-0.6-0.8-1.3-1.4-2.2-1.9
		c-1-0.5-2.2-0.9-3.3-1.1c-1.3-0.2-2.7-0.3-4-0.3c-1.4,0-2.5,0-3.3,0s-1.5,0.1-2.2,0.2L185.6,32.2z M185.6,36.6v13.9l1.5,0.1
		c0.5,0,1.1,0.1,1.7,0.1s1.4,0,2.3,0c1.6,0,3.1-0.1,4.6-0.3c1.3-0.2,2.6-0.5,3.9-1.1c1.1-0.5,2-1.3,2.6-2.2c0.7-1.1,1.1-2.3,1-3.6
		c0-1.1-0.2-2.3-0.7-3.3c-0.5-0.9-1.2-1.6-2.1-2.1c-1-0.6-2.2-0.9-3.4-1.1c-1.4-0.2-2.9-0.4-4.3-0.3L185.6,36.6z"/>
	<path class="st1" d="M242.6,40.2c0,2.2-0.3,4.3-1,6.4c-0.6,1.8-1.6,3.5-2.9,4.9c-1.2,1.4-2.7,2.4-4.4,3.2c-3.6,1.5-7.6,1.5-11.2,0
		c-1.7-0.7-3.2-1.8-4.4-3.2c-1.3-1.4-2.3-3.1-2.9-4.9c-0.7-2.1-1-4.2-1-6.4c0-2.2,0.3-4.3,1-6.4c0.6-1.8,1.6-3.5,2.9-4.9
		c1.2-1.4,2.7-2.4,4.4-3.2c3.6-1.5,7.6-1.5,11.2,0c1.7,0.7,3.2,1.8,4.4,3.2c1.3,1.4,2.3,3.1,2.9,4.9
		C242.3,35.9,242.6,38.1,242.6,40.2z M237,40.2c0.2-2.8-0.6-5.6-2.2-8c-2.7-3.4-7.7-3.9-11-1.2c-0.4,0.4-0.9,0.8-1.2,1.2
		c-1.6,2.3-2.4,5.1-2.2,8c-0.2,2.8,0.6,5.7,2.2,8c2.7,3.4,7.7,3.9,11,1.2c0.4-0.4,0.9-0.8,1.2-1.2C236.4,45.9,237.2,43.1,237,40.2
		L237,40.2z"/>
	<path class="st1" d="M276.2,40.2c0,2.2-0.3,4.3-1,6.4c-0.6,1.8-1.6,3.5-2.9,4.9c-1.2,1.4-2.7,2.4-4.4,3.2c-3.6,1.5-7.6,1.5-11.2,0
		c-1.7-0.7-3.2-1.8-4.4-3.2c-1.3-1.4-2.3-3.1-2.9-4.9c-0.7-2.1-1-4.2-1-6.4c0-2.2,0.3-4.3,1-6.4c0.6-1.8,1.6-3.5,2.9-4.9
		c1.2-1.4,2.7-2.4,4.4-3.2c3.6-1.5,7.6-1.5,11.2,0c1.7,0.7,3.2,1.8,4.4,3.2c1.3,1.4,2.3,3.1,2.9,4.9
		C275.9,35.9,276.2,38.1,276.2,40.2z M270.7,40.2c0.2-2.8-0.6-5.6-2.2-8c-2.7-3.4-7.7-3.9-11-1.2c-0.4,0.4-0.9,0.8-1.2,1.2
		c-1.6,2.3-2.4,5.1-2.3,8c-0.2,2.8,0.6,5.7,2.3,8c2.7,3.4,7.7,3.9,11,1.2c0.4-0.4,0.9-0.8,1.2-1.2C270,45.9,270.8,43.1,270.7,40.2z"
		/>
	<path class="st1" d="M294.4,38.8c1.3,1,2.5,2.1,3.6,3.2c1.3,1.3,2.5,2.7,3.8,4.2s2.4,3,3.5,4.6c1,1.4,1.9,2.8,2.8,4.3h-6.2
		c-0.9-1.4-1.8-2.7-2.8-4c-1-1.4-2.1-2.7-3.3-4c-1.1-1.2-2.3-2.4-3.5-3.5c-1-1-2.2-1.9-3.3-2.7V55h-5.3V11.7l5.3-0.9v27l3-3
		c1.1-1.1,2.2-2.2,3.2-3.4c1.1-1.1,2.1-2.2,3-3.3c1-1,1.8-2,2.5-2.8h6.2l-2.9,3.1c-1,1.1-2.1,2.3-3.2,3.5s-2.2,2.3-3.3,3.5
		L294.4,38.8z"/>
	<path class="st1" d="M316,20c-0.9,0-1.8-0.3-2.4-0.9c-0.7-0.7-1-1.6-1-2.5c0-0.9,0.3-1.9,1-2.5c1.4-1.3,3.5-1.3,4.8,0
		c0.7,0.7,1,1.6,1,2.5c0,1-0.3,1.9-1,2.5C317.8,19.7,316.9,20.1,316,20z M318.7,55h-5.3V25.4h5.3V55z"/>
	<path class="st1" d="M327.8,26.3c1.2-0.3,2.8-0.6,4.8-1c2.3-0.4,4.7-0.5,7-0.5c2-0.1,4,0.3,5.9,1c1.5,0.6,2.7,1.6,3.7,2.8
		c1,1.3,1.7,2.7,2,4.3c0.4,1.8,0.6,3.7,0.6,5.5V55h-5.3V39.5c0-1.6-0.1-3.1-0.4-4.7c-0.2-1.1-0.6-2.2-1.2-3.1
		c-0.6-0.8-1.4-1.4-2.4-1.7c-1.1-0.4-2.3-0.6-3.5-0.5c-0.6,0-1.2,0-1.8,0s-1.2,0.1-1.7,0.1s-1,0.1-1.5,0.2l-0.9,0.2v25h-5.3
		L327.8,26.3z"/>
	<path class="st1" d="M379.1,52.1c-0.8,0.5-1.7,0.9-2.6,1.2c-1.5,0.5-3,0.8-4.6,0.7c-1.7,0-3.4-0.3-5-0.9c-1.6-0.6-3-1.5-4.1-2.7
		c-1.2-1.3-2.2-2.8-2.8-4.5c-0.7-2.1-1.1-4.2-1-6.4c0-2,0.3-4.1,1-6c0.6-1.7,1.5-3.3,2.8-4.6c1.3-1.3,2.8-2.4,4.5-3.1
		c1.9-0.8,3.9-1.1,6-1.1c2.2,0,4.3,0.2,6.5,0.5c1.8,0.4,3.4,0.7,4.6,1v26.4c0,4.6-1.2,7.9-3.5,9.9c-2.4,2.1-5.9,3.1-10.7,3.1
		c-1.8,0-3.5-0.1-5.3-0.5c-1.5-0.3-2.9-0.6-4.3-1.1l1-4.6c1.3,0.5,2.6,0.9,3.9,1.1c1.6,0.3,3.2,0.5,4.8,0.5c3.1,0,5.4-0.6,6.8-1.9
		s2.1-3.3,2.1-6L379.1,52.1z M379.1,30.1c-0.7-0.2-1.4-0.3-2.1-0.4c-1.2-0.2-2.4-0.2-3.6-0.2c-2.5-0.1-4.9,0.9-6.6,2.8
		c-1.6,2.1-2.4,4.7-2.3,7.4c0,1.5,0.2,3,0.7,4.4c0.4,1.1,1,2.1,1.8,3c0.7,0.8,1.6,1.4,2.6,1.8c1,0.4,2,0.6,3,0.6
		c1.3,0,2.6-0.2,3.9-0.6c1-0.3,1.9-0.8,2.8-1.4L379.1,30.1z"/>
	<polygon class="st1" points="400,38 400,68 390,68 390,73 400,73 405,73 405,38 	"/>
	<polygon class="st0" points="10,38 10,8 20,8 20,3 10,3 5,3 5,38 	"/>
</g>
</svg>
